<svg width="269" height="237" viewBox="0 0 269 237" fill="none" xmlns="http://www.w3.org/2000/svg">
<path d="M59.3493 233.181C58.7613 233.181 58.2363 233.05 57.7743 232.789C57.3123 232.523 56.918 232.157 56.5913 231.69C56.2647 231.223 56.015 230.684 55.8423 230.073C55.6743 229.457 55.5903 228.799 55.5903 228.099C55.5903 227.399 55.6743 226.741 55.8423 226.125C56.015 225.509 56.2647 224.97 56.5913 224.508C56.918 224.041 57.3123 223.677 57.7743 223.416C58.2363 223.15 58.7613 223.017 59.3493 223.017C59.9327 223.017 60.4553 223.15 60.9173 223.416C61.3793 223.677 61.7713 224.041 62.0933 224.508C62.4153 224.97 62.6603 225.509 62.8283 226.125C63.001 226.741 63.0873 227.399 63.0873 228.099C63.0873 228.799 63.001 229.457 62.8283 230.073C62.6603 230.684 62.4153 231.223 62.0933 231.69C61.7713 232.157 61.3793 232.523 60.9173 232.789C60.4553 233.05 59.9327 233.181 59.3493 233.181ZM59.3493 232.201C59.9653 232.201 60.481 232.012 60.8963 231.634C61.3163 231.256 61.6313 230.757 61.8413 230.136C62.0513 229.511 62.1563 228.832 62.1563 228.099C62.1563 227.324 62.0467 226.629 61.8273 226.013C61.6127 225.392 61.2953 224.902 60.8753 224.543C60.46 224.179 59.9513 223.997 59.3493 223.997C58.8733 223.997 58.458 224.107 58.1033 224.326C57.7487 224.545 57.4547 224.846 57.2213 225.229C56.988 225.612 56.813 226.05 56.6963 226.545C56.5797 227.035 56.5213 227.553 56.5213 228.099C56.5213 228.836 56.6287 229.518 56.8433 230.143C57.058 230.764 57.3753 231.263 57.7953 231.641C58.2153 232.014 58.7333 232.201 59.3493 232.201Z" fill="#00A3FF"/>
<path d="M7.67369 169.89C7.07636 169.89 6.53269 169.745 6.04269 169.456C5.55736 169.167 5.17236 168.779 4.88769 168.294C4.60303 167.804 4.46069 167.267 4.46069 166.684H5.44069C5.44069 167.09 5.54103 167.463 5.74169 167.804C5.94236 168.14 6.21069 168.408 6.54669 168.609C6.88736 168.81 7.26303 168.91 7.67369 168.91C8.07969 168.91 8.45069 168.81 8.78669 168.609C9.12269 168.408 9.39103 168.14 9.59169 167.804C9.79703 167.463 9.89969 167.09 9.89969 166.684C9.89969 166.273 9.80169 165.9 9.60569 165.564C9.41436 165.223 9.14136 164.953 8.78669 164.752C8.43669 164.547 8.01903 164.444 7.53369 164.444H5.15369L6.07769 159.908H10.6627V160.888H6.86869L6.35769 163.464L7.49869 163.471C8.16603 163.48 8.75169 163.623 9.25569 163.898C9.76436 164.173 10.161 164.551 10.4457 165.032C10.735 165.508 10.8797 166.059 10.8797 166.684C10.8797 167.123 10.7957 167.536 10.6277 167.923C10.4644 168.31 10.2334 168.653 9.93469 168.952C9.64069 169.246 9.30003 169.477 8.91269 169.645C8.53003 169.808 8.11703 169.89 7.67369 169.89Z" fill="#00A3FF"/>
<path d="M248.338 169.708L253.42 160.888H247.631V159.908H254.554V160.888L249.458 169.708H248.338ZM258.633 169.89C258.036 169.89 257.492 169.745 257.002 169.456C256.517 169.167 256.132 168.779 255.847 168.294C255.562 167.804 255.42 167.267 255.42 166.684H256.4C256.4 167.09 256.5 167.463 256.701 167.804C256.902 168.14 257.17 168.408 257.506 168.609C257.847 168.81 258.222 168.91 258.633 168.91C259.039 168.91 259.41 168.81 259.746 168.609C260.082 168.408 260.35 168.14 260.551 167.804C260.756 167.463 260.859 167.09 260.859 166.684C260.859 166.273 260.761 165.9 260.565 165.564C260.374 165.223 260.101 164.953 259.746 164.752C259.396 164.547 258.978 164.444 258.493 164.444H256.113L257.037 159.908H261.622V160.888H257.828L257.317 163.464L258.458 163.471C259.125 163.48 259.711 163.623 260.215 163.898C260.724 164.173 261.12 164.551 261.405 165.032C261.694 165.508 261.839 166.059 261.839 166.684C261.839 167.123 261.755 167.536 261.587 167.923C261.424 168.31 261.193 168.653 260.894 168.952C260.6 169.246 260.259 169.477 259.872 169.645C259.489 169.808 259.076 169.89 258.633 169.89Z" fill="#A1A1AC"/>
<path d="M1.91295 90.1147V81.2947H0.86295L1.14295 80.3147H2.89295V90.1147H1.91295ZM8.28703 90.2967C7.69903 90.2967 7.17403 90.1661 6.71203 89.9047C6.25003 89.6387 5.8557 89.2724 5.52903 88.8057C5.20236 88.3391 4.9527 87.8001 4.78003 87.1887C4.61203 86.5727 4.52803 85.9147 4.52803 85.2147C4.52803 84.5147 4.61203 83.8567 4.78003 83.2407C4.9527 82.6247 5.20236 82.0857 5.52903 81.6237C5.8557 81.1571 6.25003 80.7931 6.71203 80.5317C7.17403 80.2657 7.69903 80.1327 8.28703 80.1327C8.87036 80.1327 9.39303 80.2657 9.85503 80.5317C10.317 80.7931 10.709 81.1571 11.031 81.6237C11.353 82.0857 11.598 82.6247 11.766 83.2407C11.9387 83.8567 12.025 84.5147 12.025 85.2147C12.025 85.9147 11.9387 86.5727 11.766 87.1887C11.598 87.8001 11.353 88.3391 11.031 88.8057C10.709 89.2724 10.317 89.6387 9.85503 89.9047C9.39303 90.1661 8.87036 90.2967 8.28703 90.2967ZM8.28703 89.3167C8.90303 89.3167 9.4187 89.1277 9.83403 88.7497C10.254 88.3717 10.569 87.8724 10.779 87.2517C10.989 86.6264 11.094 85.9474 11.094 85.2147C11.094 84.4401 10.9844 83.7447 10.765 83.1287C10.5504 82.5081 10.233 82.0181 9.81303 81.6587C9.3977 81.2947 8.88903 81.1127 8.28703 81.1127C7.81103 81.1127 7.3957 81.2224 7.04103 81.4417C6.68636 81.6611 6.39236 81.9621 6.15903 82.3447C5.9257 82.7274 5.7507 83.1661 5.63403 83.6607C5.51736 84.1507 5.45903 84.6687 5.45903 85.2147C5.45903 85.9521 5.56636 86.6334 5.78103 87.2587C5.9957 87.8794 6.31303 88.3787 6.73303 88.7567C7.15303 89.1301 7.67103 89.3167 8.28703 89.3167Z" fill="#00A3FF"/>
<path d="M252.545 90.7855C251.948 90.7855 251.404 90.6408 250.914 90.3515C250.429 90.0622 250.044 89.6748 249.759 89.1895C249.475 88.6995 249.332 88.1628 249.332 87.5795H250.312C250.312 87.9855 250.413 88.3588 250.613 88.6995C250.814 89.0355 251.082 89.3038 251.418 89.5045C251.759 89.7052 252.135 89.8055 252.545 89.8055C252.951 89.8055 253.322 89.7052 253.658 89.5045C253.994 89.3038 254.263 89.0355 254.463 88.6995C254.669 88.3588 254.771 87.9855 254.771 87.5795C254.771 87.1688 254.673 86.7955 254.477 86.4595C254.286 86.1188 254.013 85.8482 253.658 85.6475C253.308 85.4422 252.891 85.3395 252.405 85.3395H250.025L250.949 80.8035H255.534V81.7835H251.74L251.229 84.3595L252.37 84.3665C253.038 84.3758 253.623 84.5182 254.127 84.7935C254.636 85.0688 255.033 85.4468 255.317 85.9275C255.607 86.4035 255.751 86.9542 255.751 87.5795C255.751 88.0182 255.667 88.4312 255.499 88.8185C255.336 89.2058 255.105 89.5488 254.806 89.8475C254.512 90.1415 254.172 90.3725 253.784 90.5405C253.402 90.7038 252.989 90.7855 252.545 90.7855ZM260.449 90.7855C259.861 90.7855 259.336 90.6548 258.874 90.3935C258.412 90.1275 258.018 89.7612 257.691 89.2945C257.365 88.8278 257.115 88.2888 256.942 87.6775C256.774 87.0615 256.69 86.4035 256.69 85.7035C256.69 85.0035 256.774 84.3455 256.942 83.7295C257.115 83.1135 257.365 82.5745 257.691 82.1125C258.018 81.6458 258.412 81.2818 258.874 81.0205C259.336 80.7545 259.861 80.6215 260.449 80.6215C261.033 80.6215 261.555 80.7545 262.017 81.0205C262.479 81.2818 262.871 81.6458 263.193 82.1125C263.515 82.5745 263.76 83.1135 263.928 83.7295C264.101 84.3455 264.187 85.0035 264.187 85.7035C264.187 86.4035 264.101 87.0615 263.928 87.6775C263.76 88.2888 263.515 88.8278 263.193 89.2945C262.871 89.7612 262.479 90.1275 262.017 90.3935C261.555 90.6548 261.033 90.7855 260.449 90.7855ZM260.449 89.8055C261.065 89.8055 261.581 89.6165 261.996 89.2385C262.416 88.8605 262.731 88.3612 262.941 87.7405C263.151 87.1152 263.256 86.4362 263.256 85.7035C263.256 84.9288 263.147 84.2335 262.927 83.6175C262.713 82.9968 262.395 82.5068 261.975 82.1475C261.56 81.7835 261.051 81.6015 260.449 81.6015C259.973 81.6015 259.558 81.7112 259.203 81.9305C258.849 82.1498 258.555 82.4508 258.321 82.8335C258.088 83.2162 257.913 83.6548 257.796 84.1495C257.68 84.6395 257.621 85.1575 257.621 85.7035C257.621 86.4408 257.729 87.1222 257.943 87.7475C258.158 88.3682 258.475 88.8675 258.895 89.2455C259.315 89.6188 259.833 89.8055 260.449 89.8055Z" fill="#A1A1AC"/>
<path d="M47.4837 31.6035V22.7835H46.4337L46.7137 21.8035H48.4637V31.6035H47.4837ZM53.3817 31.7855C52.7844 31.7855 52.2407 31.6408 51.7507 31.3515C51.2654 31.0622 50.8804 30.6748 50.5957 30.1895C50.3111 29.6995 50.1687 29.1628 50.1687 28.5795H51.1487C51.1487 28.9855 51.2491 29.3588 51.4497 29.6995C51.6504 30.0355 51.9187 30.3038 52.2547 30.5045C52.5954 30.7052 52.9711 30.8055 53.3817 30.8055C53.7877 30.8055 54.1587 30.7052 54.4947 30.5045C54.8307 30.3038 55.0991 30.0355 55.2997 29.6995C55.5051 29.3588 55.6077 28.9855 55.6077 28.5795C55.6077 28.1688 55.5097 27.7955 55.3137 27.4595C55.1224 27.1188 54.8494 26.8482 54.4947 26.6475C54.1447 26.4422 53.7271 26.3395 53.2417 26.3395H50.8617L51.7857 21.8035H56.3707V22.7835H52.5767L52.0657 25.3595L53.2067 25.3665C53.8741 25.3758 54.4597 25.5182 54.9637 25.7935C55.4724 26.0688 55.8691 26.4468 56.1537 26.9275C56.4431 27.4035 56.5877 27.9542 56.5877 28.5795C56.5877 29.0182 56.5037 29.4312 56.3357 29.8185C56.1724 30.2058 55.9414 30.5488 55.6427 30.8475C55.3487 31.1415 55.0081 31.3725 54.6207 31.5405C54.2381 31.7038 53.8251 31.7855 53.3817 31.7855Z" fill="#00A3FF"/>
<path d="M207.638 31.8004C207.041 31.8004 206.516 31.6697 206.063 31.4084C205.611 31.1424 205.256 30.7877 204.999 30.3444C204.747 29.9011 204.621 29.4111 204.621 28.8744H205.601C205.601 29.2291 205.683 29.5557 205.846 29.8544C206.014 30.1484 206.25 30.3841 206.553 30.5614C206.857 30.7341 207.218 30.8204 207.638 30.8204C207.993 30.8204 208.324 30.7341 208.632 30.5614C208.945 30.3841 209.197 30.1484 209.388 29.8544C209.584 29.5557 209.682 29.2291 209.682 28.8744C209.682 28.4311 209.57 28.0624 209.346 27.7684C209.122 27.4697 208.814 27.2481 208.422 27.1034C208.03 26.9541 207.582 26.8794 207.078 26.8794V26.0674C207.774 26.0674 208.331 25.9204 208.751 25.6264C209.176 25.3277 209.388 24.8914 209.388 24.3174C209.388 24.0047 209.302 23.7201 209.129 23.4634C208.961 23.2067 208.74 23.0014 208.464 22.8474C208.194 22.6887 207.902 22.6094 207.589 22.6094C207.277 22.6094 206.976 22.6887 206.686 22.8474C206.402 23.0014 206.168 23.2067 205.986 23.4634C205.809 23.7201 205.72 24.0047 205.72 24.3174H204.74C204.74 23.9487 204.817 23.6034 204.971 23.2814C205.125 22.9547 205.335 22.6677 205.601 22.4204C205.867 22.1731 206.171 21.9794 206.511 21.8394C206.852 21.6994 207.209 21.6294 207.582 21.6294C208.072 21.6294 208.527 21.7507 208.947 21.9934C209.372 22.2361 209.715 22.5604 209.976 22.9664C210.238 23.3724 210.368 23.8227 210.368 24.3174C210.368 24.7981 210.245 25.2321 209.997 25.6194C209.75 26.0067 209.416 26.2797 208.996 26.4384C209.36 26.5597 209.666 26.7441 209.913 26.9914C210.161 27.2341 210.347 27.5164 210.473 27.8384C210.599 28.1604 210.662 28.5057 210.662 28.8744C210.662 29.4111 210.522 29.9011 210.242 30.3444C209.962 30.7877 209.591 31.1424 209.129 31.4084C208.672 31.6697 208.175 31.8004 207.638 31.8004ZM215.357 31.8004C214.769 31.8004 214.244 31.6697 213.782 31.4084C213.32 31.1424 212.926 30.7761 212.599 30.3094C212.273 29.8427 212.023 29.3037 211.85 28.6924C211.682 28.0764 211.598 27.4184 211.598 26.7184C211.598 26.0184 211.682 25.3604 211.85 24.7444C212.023 24.1284 212.273 23.5894 212.599 23.1274C212.926 22.6607 213.32 22.2967 213.782 22.0354C214.244 21.7694 214.769 21.6364 215.357 21.6364C215.941 21.6364 216.463 21.7694 216.925 22.0354C217.387 22.2967 217.779 22.6607 218.101 23.1274C218.423 23.5894 218.668 24.1284 218.836 24.7444C219.009 25.3604 219.095 26.0184 219.095 26.7184C219.095 27.4184 219.009 28.0764 218.836 28.6924C218.668 29.3037 218.423 29.8427 218.101 30.3094C217.779 30.7761 217.387 31.1424 216.925 31.4084C216.463 31.6697 215.941 31.8004 215.357 31.8004ZM215.357 30.8204C215.973 30.8204 216.489 30.6314 216.904 30.2534C217.324 29.8754 217.639 29.3761 217.849 28.7554C218.059 28.1301 218.164 27.4511 218.164 26.7184C218.164 25.9437 218.055 25.2484 217.835 24.6324C217.621 24.0117 217.303 23.5217 216.883 23.1624C216.468 22.7984 215.959 22.6164 215.357 22.6164C214.881 22.6164 214.466 22.7261 214.111 22.9454C213.757 23.1647 213.463 23.4657 213.229 23.8484C212.996 24.2311 212.821 24.6697 212.704 25.1644C212.588 25.6544 212.529 26.1724 212.529 26.7184C212.529 27.4557 212.637 28.1371 212.851 28.7624C213.066 29.3831 213.383 29.8824 213.803 30.2604C214.223 30.6337 214.741 30.8204 215.357 30.8204Z" fill="#A1A1AC"/>
<path d="M197.483 232.604V223.784H196.433L196.713 222.804H198.463V232.604H197.483ZM203.857 232.786C203.269 232.786 202.744 232.655 202.282 232.394C201.82 232.128 201.426 231.761 201.099 231.295C200.772 230.828 200.523 230.289 200.35 229.678C200.182 229.062 200.098 228.404 200.098 227.704C200.098 227.004 200.182 226.346 200.35 225.73C200.523 225.114 200.772 224.575 201.099 224.113C201.426 223.646 201.82 223.282 202.282 223.021C202.744 222.755 203.269 222.622 203.857 222.622C204.44 222.622 204.963 222.755 205.425 223.021C205.887 223.282 206.279 223.646 206.601 224.113C206.923 224.575 207.168 225.114 207.336 225.73C207.509 226.346 207.595 227.004 207.595 227.704C207.595 228.404 207.509 229.062 207.336 229.678C207.168 230.289 206.923 230.828 206.601 231.295C206.279 231.761 205.887 232.128 205.425 232.394C204.963 232.655 204.44 232.786 203.857 232.786ZM203.857 231.806C204.473 231.806 204.989 231.617 205.404 231.239C205.824 230.861 206.139 230.361 206.349 229.741C206.559 229.115 206.664 228.436 206.664 227.704C206.664 226.929 206.554 226.234 206.335 225.618C206.12 224.997 205.803 224.507 205.383 224.148C204.968 223.784 204.459 223.602 203.857 223.602C203.381 223.602 202.966 223.711 202.611 223.931C202.256 224.15 201.962 224.451 201.729 224.834C201.496 225.216 201.321 225.655 201.204 226.15C201.087 226.64 201.029 227.158 201.029 227.704C201.029 228.441 201.136 229.122 201.351 229.748C201.566 230.368 201.883 230.868 202.303 231.246C202.723 231.619 203.241 231.806 203.857 231.806ZM212.16 232.786C211.572 232.786 211.047 232.655 210.585 232.394C210.123 232.128 209.729 231.761 209.402 231.295C209.075 230.828 208.826 230.289 208.653 229.678C208.485 229.062 208.401 228.404 208.401 227.704C208.401 227.004 208.485 226.346 208.653 225.73C208.826 225.114 209.075 224.575 209.402 224.113C209.729 223.646 210.123 223.282 210.585 223.021C211.047 222.755 211.572 222.622 212.16 222.622C212.743 222.622 213.266 222.755 213.728 223.021C214.19 223.282 214.582 223.646 214.904 224.113C215.226 224.575 215.471 225.114 215.639 225.73C215.812 226.346 215.898 227.004 215.898 227.704C215.898 228.404 215.812 229.062 215.639 229.678C215.471 230.289 215.226 230.828 214.904 231.295C214.582 231.761 214.19 232.128 213.728 232.394C213.266 232.655 212.743 232.786 212.16 232.786ZM212.16 231.806C212.776 231.806 213.292 231.617 213.707 231.239C214.127 230.861 214.442 230.361 214.652 229.741C214.862 229.115 214.967 228.436 214.967 227.704C214.967 226.929 214.857 226.234 214.638 225.618C214.423 224.997 214.106 224.507 213.686 224.148C213.271 223.784 212.762 223.602 212.16 223.602C211.684 223.602 211.269 223.711 210.914 223.931C210.559 224.15 210.265 224.451 210.032 224.834C209.799 225.216 209.624 225.655 209.507 226.15C209.39 226.64 209.332 227.158 209.332 227.704C209.332 228.441 209.439 229.122 209.654 229.748C209.869 230.368 210.186 230.868 210.606 231.246C211.026 231.619 211.544 231.806 212.16 231.806Z" fill="#A1A1AC"/>
<path d="M122.089 13.6035V12.7355C122.472 12.3808 122.892 11.9935 123.349 11.5735C123.807 11.1488 124.259 10.7125 124.707 10.2645C125.16 9.81185 125.573 9.36618 125.946 8.92752C126.32 8.48418 126.618 8.06652 126.842 7.67452C127.071 7.27785 127.185 6.92785 127.185 6.62452C127.185 6.25585 127.094 5.91985 126.912 5.61652C126.735 5.30852 126.495 5.06352 126.191 4.88152C125.893 4.69485 125.559 4.60152 125.19 4.60152C124.822 4.60152 124.483 4.69485 124.175 4.88152C123.872 5.06352 123.629 5.30852 123.447 5.61652C123.265 5.91985 123.174 6.25585 123.174 6.62452H122.194C122.194 6.06452 122.33 5.55818 122.6 5.10551C122.876 4.65285 123.24 4.29352 123.692 4.02752C124.145 3.75685 124.644 3.62151 125.19 3.62151C125.736 3.62151 126.233 3.75685 126.681 4.02752C127.134 4.29818 127.493 4.65985 127.759 5.11252C128.03 5.56518 128.165 6.06918 128.165 6.62452C128.165 6.95585 128.077 7.31985 127.899 7.71652C127.727 8.10852 127.491 8.51685 127.192 8.94152C126.894 9.36152 126.558 9.78618 126.184 10.2155C125.811 10.6448 125.421 11.0648 125.015 11.4755C124.609 11.8815 124.215 12.2642 123.832 12.6235H128.312V13.6035H122.089ZM133.082 13.7855C132.494 13.7855 131.969 13.6548 131.507 13.3935C131.045 13.1275 130.651 12.7612 130.324 12.2945C129.997 11.8278 129.748 11.2888 129.575 10.6775C129.407 10.0615 129.323 9.40352 129.323 8.70352C129.323 8.00352 129.407 7.34552 129.575 6.72952C129.748 6.11352 129.997 5.57452 130.324 5.11252C130.651 4.64585 131.045 4.28185 131.507 4.02052C131.969 3.75451 132.494 3.62151 133.082 3.62151C133.665 3.62151 134.188 3.75451 134.65 4.02052C135.112 4.28185 135.504 4.64585 135.826 5.11252C136.148 5.57452 136.393 6.11352 136.561 6.72952C136.734 7.34552 136.82 8.00352 136.82 8.70352C136.82 9.40352 136.734 10.0615 136.561 10.6775C136.393 11.2888 136.148 11.8278 135.826 12.2945C135.504 12.7612 135.112 13.1275 134.65 13.3935C134.188 13.6548 133.665 13.7855 133.082 13.7855ZM133.082 12.8055C133.698 12.8055 134.214 12.6165 134.629 12.2385C135.049 11.8605 135.364 11.3612 135.574 10.7405C135.784 10.1152 135.889 9.43618 135.889 8.70352C135.889 7.92885 135.779 7.23352 135.56 6.61752C135.345 5.99685 135.028 5.50685 134.608 5.14752C134.193 4.78352 133.684 4.60152 133.082 4.60152C132.606 4.60152 132.191 4.71118 131.836 4.93052C131.481 5.14985 131.187 5.45085 130.954 5.83352C130.721 6.21618 130.546 6.65485 130.429 7.14952C130.312 7.63952 130.254 8.15752 130.254 8.70352C130.254 9.44085 130.361 10.1222 130.576 10.7475C130.791 11.3682 131.108 11.8675 131.528 12.2455C131.948 12.6188 132.466 12.8055 133.082 12.8055Z" fill="#00A3FF"/>
<path d="M82.7319 146.124C83.6385 145.404 84.0519 145.07 83.9719 145.124C86.5852 142.964 88.6385 141.19 90.1319 139.804C91.6519 138.417 92.9319 136.964 93.9719 135.444C95.0119 133.924 95.5319 132.444 95.5319 131.004C95.5319 129.91 95.2785 129.057 94.7719 128.444C94.2652 127.83 93.5052 127.524 92.4919 127.524C91.4785 127.524 90.6785 127.91 90.0919 128.684C89.5319 129.43 89.2519 130.497 89.2519 131.884H82.6519C82.7052 129.617 83.1852 127.724 84.0919 126.204C85.0252 124.684 86.2385 123.564 87.7319 122.844C89.2519 122.124 90.9319 121.764 92.7719 121.764C95.9452 121.764 98.3319 122.577 99.9319 124.204C101.559 125.83 102.372 127.95 102.372 130.564C102.372 133.417 101.399 136.07 99.4519 138.524C97.5052 140.95 95.0252 143.324 92.0119 145.644H102.812V151.204H82.7319V146.124ZM124.463 127.524L114.423 151.604H107.423L117.583 128.284H105.143V122.444H124.463V127.524ZM131.11 151.924C129.91 151.924 128.923 151.577 128.15 150.884C127.403 150.164 127.03 149.284 127.03 148.244C127.03 147.177 127.403 146.284 128.15 145.564C128.923 144.844 129.91 144.484 131.11 144.484C132.283 144.484 133.243 144.844 133.99 145.564C134.763 146.284 135.15 147.177 135.15 148.244C135.15 149.284 134.763 150.164 133.99 150.884C133.243 151.577 132.283 151.924 131.11 151.924ZM138.679 146.404V140.884L151.319 122.804H158.959V140.484H162.239V146.404H158.959V151.604H152.119V146.404H138.679ZM152.599 130.324L145.879 140.484H152.599V130.324ZM164.869 128.764V122.404H175.949V151.604H168.829V128.764H164.869Z" fill="#00A3FF"/>
<path d="M122.644 157.944V167.604H121.664V159.89L118.22 167.604H117.506L114.062 159.918V167.604H113.082V157.944H114.118L117.856 166.316L121.594 157.944H122.644ZM125.933 161.654C126.185 161.122 126.572 160.688 127.095 160.352C127.627 160.016 128.252 159.848 128.971 159.848C129.671 159.848 130.296 160.011 130.847 160.338C131.397 160.655 131.827 161.112 132.135 161.71C132.452 162.298 132.611 162.984 132.611 163.768C132.611 164.552 132.452 165.242 132.135 165.84C131.827 166.437 131.393 166.899 130.833 167.226C130.282 167.552 129.661 167.716 128.971 167.716C128.243 167.716 127.613 167.552 127.081 167.226C126.558 166.89 126.175 166.456 125.933 165.924V167.604H124.967V157.244H125.933V161.654ZM131.617 163.768C131.617 163.133 131.491 162.587 131.239 162.13C130.996 161.663 130.66 161.308 130.231 161.066C129.801 160.823 129.316 160.702 128.775 160.702C128.252 160.702 127.771 160.828 127.333 161.08C126.903 161.332 126.563 161.691 126.311 162.158C126.059 162.624 125.933 163.166 125.933 163.782C125.933 164.398 126.059 164.939 126.311 165.406C126.563 165.872 126.903 166.232 127.333 166.484C127.771 166.736 128.252 166.862 128.775 166.862C129.316 166.862 129.801 166.74 130.231 166.498C130.66 166.246 130.996 165.886 131.239 165.42C131.491 164.944 131.617 164.393 131.617 163.768ZM138.868 154.444L135.004 169.928H134.038L137.874 154.444H138.868ZM143.426 167.716C142.548 167.716 141.83 167.515 141.27 167.114C140.719 166.703 140.411 166.148 140.346 165.448H141.354C141.4 165.877 141.601 166.227 141.956 166.498C142.32 166.759 142.805 166.89 143.412 166.89C143.944 166.89 144.359 166.764 144.658 166.512C144.966 166.26 145.12 165.947 145.12 165.574C145.12 165.312 145.036 165.098 144.868 164.93C144.7 164.762 144.485 164.631 144.224 164.538C143.972 164.435 143.626 164.328 143.188 164.216C142.618 164.066 142.156 163.917 141.802 163.768C141.447 163.618 141.144 163.399 140.892 163.11C140.649 162.811 140.528 162.414 140.528 161.92C140.528 161.546 140.64 161.201 140.864 160.884C141.088 160.566 141.405 160.314 141.816 160.128C142.226 159.941 142.693 159.848 143.216 159.848C144.037 159.848 144.7 160.058 145.204 160.478C145.708 160.888 145.978 161.458 146.016 162.186H145.036C145.008 161.738 144.83 161.378 144.504 161.108C144.186 160.828 143.748 160.688 143.188 160.688C142.693 160.688 142.292 160.804 141.984 161.038C141.676 161.271 141.522 161.56 141.522 161.906C141.522 162.204 141.61 162.452 141.788 162.648C141.974 162.834 142.203 162.984 142.474 163.096C142.744 163.198 143.108 163.315 143.566 163.446C144.116 163.595 144.555 163.74 144.882 163.88C145.208 164.02 145.488 164.225 145.722 164.496C145.955 164.766 146.076 165.126 146.086 165.574C146.086 165.984 145.974 166.353 145.75 166.68C145.526 166.997 145.213 167.249 144.812 167.436C144.41 167.622 143.948 167.716 143.426 167.716Z" fill="#A1A1AC"/>
<path d="M98.4561 90.8175C99.5388 90.8175 100.467 91.0135 101.242 91.4055C102.017 91.7975 102.609 92.3622 103.02 93.0995C103.431 93.8368 103.636 94.7142 103.636 95.7315C103.636 96.7395 103.431 97.6122 103.02 98.3495C102.609 99.0775 102.017 99.6375 101.242 100.03C100.467 100.412 99.5388 100.604 98.4561 100.604H95.5581V90.8175H98.4561ZM98.4561 99.7915C99.8188 99.7915 100.855 99.4368 101.564 98.7275C102.283 98.0088 102.642 97.0102 102.642 95.7315C102.642 94.4435 102.283 93.4402 101.564 92.7215C100.855 91.9935 99.8188 91.6295 98.4561 91.6295H96.5381V99.7915H98.4561ZM108.889 100.716C108.17 100.716 107.522 100.557 106.943 100.24C106.374 99.9128 105.921 99.4555 105.585 98.8675C105.258 98.2702 105.095 97.5748 105.095 96.7815C105.095 95.9882 105.263 95.2975 105.599 94.7095C105.935 94.1122 106.392 93.6548 106.971 93.3375C107.55 93.0108 108.198 92.8475 108.917 92.8475C109.636 92.8475 110.284 93.0108 110.863 93.3375C111.451 93.6548 111.908 94.1122 112.235 94.7095C112.571 95.2975 112.739 95.9882 112.739 96.7815C112.739 97.5655 112.571 98.2562 112.235 98.8535C111.899 99.4508 111.437 99.9128 110.849 100.24C110.261 100.557 109.608 100.716 108.889 100.716ZM108.889 99.8615C109.393 99.8615 109.86 99.7495 110.289 99.5255C110.718 99.2922 111.064 98.9468 111.325 98.4895C111.596 98.0228 111.731 97.4535 111.731 96.7815C111.731 96.1095 111.6 95.5448 111.339 95.0875C111.078 94.6208 110.732 94.2755 110.303 94.0515C109.874 93.8182 109.407 93.7015 108.903 93.7015C108.399 93.7015 107.932 93.8182 107.503 94.0515C107.074 94.2755 106.728 94.6208 106.467 95.0875C106.215 95.5448 106.089 96.1095 106.089 96.7815C106.089 97.4535 106.215 98.0228 106.467 98.4895C106.728 98.9468 107.069 99.2922 107.489 99.5255C107.918 99.7495 108.385 99.8615 108.889 99.8615ZM124.705 92.9595L122.311 100.604H121.331L119.217 94.1915L117.103 100.604H116.109L113.715 92.9595H114.709L116.613 99.6095L118.755 92.9595H119.735L121.849 99.6235L123.739 92.9595H124.705ZM129.725 92.8195C130.64 92.8195 131.387 93.1042 131.965 93.6735C132.544 94.2335 132.833 95.0502 132.833 96.1235V100.604H131.867V96.2355C131.867 95.4048 131.657 94.7702 131.237 94.3315C130.827 93.8928 130.262 93.6735 129.543 93.6735C128.806 93.6735 128.218 93.9068 127.779 94.3735C127.341 94.8402 127.121 95.5262 127.121 96.4315V100.604H126.141V92.9595H127.121V94.2615C127.364 93.7948 127.714 93.4402 128.171 93.1975C128.629 92.9455 129.147 92.8195 129.725 92.8195ZM136.081 90.2435V100.604H135.101V90.2435H136.081ZM141.746 100.716C141.027 100.716 140.379 100.557 139.8 100.24C139.231 99.9128 138.778 99.4555 138.442 98.8675C138.115 98.2702 137.952 97.5748 137.952 96.7815C137.952 95.9882 138.12 95.2975 138.456 94.7095C138.792 94.1122 139.249 93.6548 139.828 93.3375C140.407 93.0108 141.055 92.8475 141.774 92.8475C142.493 92.8475 143.141 93.0108 143.72 93.3375C144.308 93.6548 144.765 94.1122 145.092 94.7095C145.428 95.2975 145.596 95.9882 145.596 96.7815C145.596 97.5655 145.428 98.2562 145.092 98.8535C144.756 99.4508 144.294 99.9128 143.706 100.24C143.118 100.557 142.465 100.716 141.746 100.716ZM141.746 99.8615C142.25 99.8615 142.717 99.7495 143.146 99.5255C143.575 99.2922 143.921 98.9468 144.182 98.4895C144.453 98.0228 144.588 97.4535 144.588 96.7815C144.588 96.1095 144.457 95.5448 144.196 95.0875C143.935 94.6208 143.589 94.2755 143.16 94.0515C142.731 93.8182 142.264 93.7015 141.76 93.7015C141.256 93.7015 140.789 93.8182 140.36 94.0515C139.931 94.2755 139.585 94.6208 139.324 95.0875C139.072 95.5448 138.946 96.1095 138.946 96.7815C138.946 97.4535 139.072 98.0228 139.324 98.4895C139.585 98.9468 139.926 99.2922 140.346 99.5255C140.775 99.7495 141.242 99.8615 141.746 99.8615ZM147.034 96.7675C147.034 95.9835 147.188 95.2975 147.496 94.7095C147.814 94.1122 148.248 93.6548 148.798 93.3375C149.358 93.0108 149.988 92.8475 150.688 92.8475C151.416 92.8475 152.042 93.0155 152.564 93.3515C153.096 93.6875 153.479 94.1168 153.712 94.6395V92.9595H154.692V100.604H153.712V98.9095C153.47 99.4322 153.082 99.8662 152.55 100.212C152.028 100.548 151.402 100.716 150.674 100.716C149.984 100.716 149.358 100.552 148.798 100.226C148.248 99.8988 147.814 99.4368 147.496 98.8395C147.188 98.2422 147.034 97.5515 147.034 96.7675ZM153.712 96.7815C153.712 96.1655 153.586 95.6242 153.334 95.1575C153.082 94.6908 152.737 94.3315 152.298 94.0795C151.869 93.8275 151.393 93.7015 150.87 93.7015C150.329 93.7015 149.844 93.8228 149.414 94.0655C148.985 94.3082 148.644 94.6628 148.392 95.1295C148.15 95.5868 148.028 96.1328 148.028 96.7675C148.028 97.3928 148.15 97.9435 148.392 98.4195C148.644 98.8862 148.985 99.2455 149.414 99.4975C149.844 99.7402 150.329 99.8615 150.87 99.8615C151.393 99.8615 151.869 99.7355 152.298 99.4835C152.737 99.2315 153.082 98.8722 153.334 98.4055C153.586 97.9388 153.712 97.3975 153.712 96.7815ZM156.582 96.7675C156.582 95.9835 156.74 95.2975 157.058 94.7095C157.375 94.1122 157.809 93.6548 158.36 93.3375C158.92 93.0108 159.55 92.8475 160.25 92.8475C160.922 92.8475 161.528 93.0108 162.07 93.3375C162.611 93.6642 163.008 94.0888 163.26 94.6115V90.2435H164.24V100.604H163.26V98.8955C163.026 99.4275 162.644 99.8662 162.112 100.212C161.58 100.548 160.954 100.716 160.236 100.716C159.536 100.716 158.906 100.552 158.346 100.226C157.795 99.8988 157.361 99.4368 157.044 98.8395C156.736 98.2422 156.582 97.5515 156.582 96.7675ZM163.26 96.7815C163.26 96.1655 163.134 95.6242 162.882 95.1575C162.63 94.6908 162.284 94.3315 161.846 94.0795C161.416 93.8275 160.94 93.7015 160.418 93.7015C159.876 93.7015 159.391 93.8228 158.962 94.0655C158.532 94.3082 158.192 94.6628 157.94 95.1295C157.697 95.5868 157.576 96.1328 157.576 96.7675C157.576 97.3928 157.697 97.9435 157.94 98.4195C158.192 98.8862 158.532 99.2455 158.962 99.4975C159.391 99.7402 159.876 99.8615 160.418 99.8615C160.94 99.8615 161.416 99.7355 161.846 99.4835C162.284 99.2315 162.63 98.8722 162.882 98.4055C163.134 97.9388 163.26 97.3975 163.26 96.7815Z" fill="#A1A1AC"/>
<path d="M189.547 214.528C190.384 215.722 192.025 216.03 193.216 215.189C209.927 203.388 222.885 187.178 230.555 168.432C238.552 148.885 240.441 127.459 235.984 106.862C231.526 86.2658 220.922 67.4242 205.511 52.7201C190.101 38.016 170.577 28.1098 149.408 24.2544C128.239 20.399 106.377 22.7673 86.5845 31.0601C66.7925 39.3528 49.9601 53.1974 38.2159 70.8432C26.4718 88.4889 20.3433 109.143 20.6055 130.194C20.8568 150.369 26.9668 170.039 38.1963 186.924C39.0104 188.148 40.6653 188.454 41.8862 187.635C43.144 186.792 43.4596 185.081 42.624 183.818C32.0426 167.823 26.2864 149.214 26.0487 130.13C25.7996 110.131 31.6217 90.5094 42.7786 73.7459C53.9356 56.9825 69.9263 43.8301 88.7288 35.952C107.531 28.0739 128.301 25.8239 148.411 29.4866C168.521 33.1493 187.069 42.5601 201.709 56.529C216.349 70.4979 226.423 88.3975 230.658 107.964C234.893 127.531 233.098 147.886 225.5 166.455C218.245 184.19 206.008 199.534 190.228 210.733C189.003 211.602 188.684 213.299 189.547 214.528Z" fill="#4A4A61"/>
<g filter="url(#filter0_d_205_9658)">
<path fill-rule="evenodd" clip-rule="evenodd" d="M65.5125 215.039C66.7017 215.883 68.3429 215.579 69.1833 214.387C70.0491 213.16 69.7343 211.463 68.5112 210.59C48.4902 196.31 34.3519 175.452 28.7271 151.793C22.8938 127.258 26.6367 101.477 39.2231 79.4981C51.8094 57.519 72.3329 40.9239 96.776 32.9615C118.386 25.9218 141.684 26.078 163.072 33.2616C163.05 33.5001 163.039 33.7416 163.039 33.9857C163.039 38.3947 166.695 41.969 171.204 41.969C175.714 41.969 179.37 38.3947 179.37 33.9857C179.37 29.5766 175.714 26.0024 171.204 26.0024C168.916 26.0024 166.847 26.9228 165.365 28.4056C142.708 20.6694 117.98 20.4445 95.0553 27.9122C69.3257 36.2937 47.722 53.7622 34.4732 76.8981C21.2245 100.034 17.2846 127.171 23.4248 152.998C29.3653 177.985 44.3268 200.004 65.5125 215.039Z" fill="url(#paint0_linear_205_9658)"/>
</g>
<defs>
<filter id="filter0_d_205_9658" x="8.59741" y="10.4542" width="182.772" height="217.064" filterUnits="userSpaceOnUse" color-interpolation-filters="sRGB">
<feFlood flood-opacity="0" result="BackgroundImageFix"/>
<feColorMatrix in="SourceAlpha" type="matrix" values="0 0 0 0 0 0 0 0 0 0 0 0 0 0 0 0 0 0 127 0" result="hardAlpha"/>
<feOffset/>
<feGaussianBlur stdDeviation="6"/>
<feComposite in2="hardAlpha" operator="out"/>
<feColorMatrix type="matrix" values="0 0 0 0 0.418333 0 0 0 0 0.8255 0 0 0 0 1 0 0 0 0.3 0"/>
<feBlend mode="normal" in2="BackgroundImageFix" result="effect1_dropShadow_205_9658"/>
<feBlend mode="normal" in="SourceGraphic" in2="effect1_dropShadow_205_9658" result="shape"/>
</filter>
<linearGradient id="paint0_linear_205_9658" x1="44.1865" y1="189.244" x2="154.602" y2="53.2926" gradientUnits="userSpaceOnUse">
<stop stop-color="#851ED6"/>
<stop offset="1" stop-color="#01A1FE"/>
</linearGradient>
</defs>
</svg>
