<svg width="36" height="35" viewBox="0 0 36 35" fill="none" xmlns="http://www.w3.org/2000/svg">
<rect x="0.902344" width="34.3226" height="35" rx="12" fill="white" fill-opacity="0.2"/>
<g clip-path="url(#clip0_851_3502)">
<path d="M11.8689 18.64L21.5229 18.64L17.7529 22.3799C17.541 22.5975 17.4224 22.8892 17.4224 23.1929C17.4224 23.4967 17.541 23.7884 17.7529 24.006C17.9676 24.218 18.2572 24.3369 18.5589 24.3369C18.8607 24.3369 19.1503 24.218 19.3649 24.006L25.0969 18.306C25.302 18.0879 25.4161 17.7998 25.4161 17.5005C25.4161 17.2012 25.302 16.913 25.0969 16.6949L19.3649 10.9949C19.1503 10.7829 18.8607 10.6641 18.5589 10.6641C18.2572 10.6641 17.9676 10.7829 17.7529 10.9949C17.5458 11.2107 17.4267 11.496 17.4189 11.795C17.4219 12.0967 17.5416 12.3856 17.7529 12.601L21.5229 16.356L11.8689 16.356C11.5723 16.3647 11.2908 16.4887 11.0841 16.7017C10.8773 16.9146 10.7617 17.1997 10.7617 17.4965C10.7617 17.7932 10.8773 18.0783 11.0841 18.2913C11.2908 18.5042 11.5723 18.6282 11.8689 18.637L11.8689 18.64Z" fill="white"/>
</g>
<defs>
<clipPath id="clip0_851_3502">
<rect width="14.4018" height="13.674" fill="white" transform="matrix(1 1.78296e-07 1.71461e-07 -1 10.8477 24.3369)"/>
</clipPath>
</defs>
</svg>
