<svg width="16" height="17" viewBox="0 0 16 17" fill="none" xmlns="http://www.w3.org/2000/svg">
<g id="line/arrow-circle-down-light">
<path id="Vector" d="M8 2.125C6.73915 2.125 5.50661 2.49889 4.45824 3.19938C3.40988 3.89988 2.59278 4.89551 2.11027 6.06039C1.62776 7.22527 1.50152 8.50707 1.7475 9.7437C1.99348 10.9803 2.60064 12.1162 3.4922 13.0078C4.38376 13.8994 5.51967 14.5065 6.7563 14.7525C7.99293 14.9985 9.27473 14.8722 10.4396 14.3897C11.6045 13.9072 12.6001 13.0901 13.3006 12.0418C14.0011 10.9934 14.375 9.76086 14.375 8.5C14.3731 6.80983 13.7008 5.18943 12.5057 3.9943C11.3106 2.79916 9.69017 2.1269 8 2.125ZM8 14.125C6.88748 14.125 5.79995 13.7951 4.87492 13.177C3.94989 12.5589 3.22892 11.6804 2.80318 10.6526C2.37744 9.62476 2.26604 8.49376 2.48309 7.40262C2.70013 6.31147 3.23586 5.30919 4.02253 4.52252C4.8092 3.73585 5.81148 3.20012 6.90262 2.98308C7.99376 2.76604 9.12476 2.87743 10.1526 3.30318C11.1804 3.72892 12.0589 4.44989 12.677 5.37492C13.2951 6.29994 13.625 7.38748 13.625 8.5C13.6233 9.99132 13.0301 11.4211 11.9756 12.4756C10.9211 13.5301 9.49133 14.1233 8 14.125ZM10.3865 8.6135C10.4213 8.64832 10.449 8.68967 10.4678 8.73517C10.4867 8.78067 10.4964 8.82944 10.4964 8.87869C10.4964 8.92794 10.4867 8.97671 10.4678 9.02221C10.449 9.06771 10.4213 9.10905 10.3865 9.14388L8.26519 11.2651C8.23037 11.3 8.18902 11.3276 8.14352 11.3464C8.09802 11.3653 8.04925 11.375 8 11.375C7.95075 11.375 7.90198 11.3653 7.85648 11.3464C7.81098 11.3276 7.76964 11.3 7.73482 11.2651L5.61357 9.14388C5.54323 9.07355 5.50372 8.97817 5.50371 8.87871C5.50371 8.77925 5.54321 8.68386 5.61353 8.61353C5.68386 8.5432 5.77924 8.50368 5.8787 8.50368C5.97816 8.50367 6.07355 8.54318 6.14388 8.6135L7.625 10.0947V6C7.625 5.90054 7.66451 5.80516 7.73484 5.73484C7.80516 5.66451 7.90055 5.625 8 5.625C8.09946 5.625 8.19484 5.66451 8.26517 5.73484C8.33549 5.80516 8.375 5.90054 8.375 6V10.0947L9.85613 8.6135C9.89095 8.57867 9.93229 8.55104 9.97779 8.53219C10.0233 8.51334 10.0721 8.50364 10.1213 8.50364C10.1706 8.50364 10.2193 8.51334 10.2648 8.53219C10.3103 8.55104 10.3517 8.57867 10.3865 8.6135Z" fill="white"/>
</g>
</svg>
