<svg width="16" height="16" viewBox="0 0 16 16" fill="none" xmlns="http://www.w3.org/2000/svg">
<g id="line-bold/table">
<path id="Vector" d="M14 3H2C1.86739 3 1.74021 3.05268 1.64645 3.14645C1.55268 3.24021 1.5 3.36739 1.5 3.5V12C1.5003 12.2651 1.60575 12.5193 1.79322 12.7068C1.98069 12.8942 2.23487 12.9997 2.5 13H13.5C13.7651 12.9997 14.0193 12.8942 14.2068 12.7068C14.3942 12.5193 14.4997 12.2651 14.5 12V3.5C14.5 3.36739 14.4473 3.24021 14.3536 3.14645C14.2598 3.05268 14.1326 3 14 3ZM2.5 7H5V9H2.5V7ZM6 7H13.5002L13.5004 9H6V7ZM13.5 4L13.5002 6H2.5V4H13.5ZM2.5 10H5V12H2.5V10ZM13.5 12H6V10H13.5005L13.5006 12H13.5Z" fill="#A1A1AC"/>
</g>
</svg>
