<svg width="16" height="16" viewBox="0 0 16 16" fill="none" xmlns="http://www.w3.org/2000/svg">
<g id="line-bold/arrows-left-right">
<path id="Vector" d="M13.3606 11.3456C13.3582 11.3481 13.3561 11.351 13.3536 11.3535L11.3536 13.3535C11.3071 13.3999 11.252 13.4367 11.1913 13.4618C11.1307 13.487 11.0657 13.4999 11 13.4999C10.9343 13.4999 10.8693 13.487 10.8087 13.4618C10.748 13.4367 10.6929 13.3999 10.6464 13.3535C10.6 13.307 10.5632 13.2519 10.538 13.1912C10.5129 13.1306 10.5 13.0656 10.5 12.9999C10.5 12.9342 10.5129 12.8692 10.538 12.8085C10.5632 12.7479 10.6 12.6928 10.6464 12.6463L11.7929 11.4999H3C2.86739 11.4999 2.74021 11.4472 2.64645 11.3534C2.55268 11.2597 2.5 11.1325 2.5 10.9999C2.5 10.8673 2.55268 10.7401 2.64645 10.6463C2.74021 10.5526 2.86739 10.4999 3 10.4999H11.7929L10.6464 9.35345C10.6 9.30702 10.5632 9.2519 10.538 9.19124C10.5129 9.13057 10.5 9.06555 10.5 8.99989C10.5 8.93423 10.5129 8.86921 10.538 8.80854C10.5632 8.74788 10.6 8.69276 10.6464 8.64633C10.6929 8.5999 10.748 8.56307 10.8087 8.53794C10.8693 8.51281 10.9343 8.49988 11 8.49988C11.0657 8.49988 11.1307 8.51281 11.1913 8.53794C11.252 8.56307 11.3071 8.5999 11.3536 8.64633L13.3536 10.6463C13.3559 10.6486 13.3579 10.6513 13.3602 10.6536C13.3693 10.663 13.3782 10.6726 13.3865 10.6828C13.3919 10.6894 13.3968 10.6964 13.4018 10.7033C13.4064 10.7095 13.4113 10.7156 13.4156 10.722C13.4208 10.7298 13.4254 10.7379 13.4301 10.7459C13.4337 10.7519 13.4375 10.7578 13.4408 10.764C13.4451 10.772 13.4488 10.7802 13.4526 10.7884C13.4557 10.795 13.459 10.8015 13.4618 10.8084C13.4651 10.8163 13.4678 10.8243 13.4706 10.8323C13.4733 10.8397 13.4761 10.847 13.4784 10.8545C13.4808 10.8626 13.4826 10.8708 13.4846 10.8789C13.4866 10.8866 13.4887 10.8942 13.4902 10.902C13.4921 10.9115 13.4934 10.9211 13.4946 10.9306C13.4956 10.9372 13.4968 10.9438 13.4975 10.9504C13.5008 10.9833 13.5008 11.0165 13.4975 11.0494C13.4969 11.0561 13.4956 11.0626 13.4947 11.0691C13.4933 11.0787 13.4922 11.0883 13.4903 11.0978C13.4888 11.1056 13.4866 11.1132 13.4847 11.1209C13.4826 11.129 13.4808 11.1371 13.4784 11.1453C13.4761 11.1528 13.4733 11.1601 13.4706 11.1675C13.4678 11.1755 13.4651 11.1836 13.4618 11.1915C13.459 11.1983 13.4557 11.2048 13.4526 11.2115C13.4487 11.2196 13.4451 11.2278 13.4408 11.2358C13.4375 11.2421 13.4337 11.2479 13.4301 11.254C13.4254 11.2619 13.4208 11.27 13.4156 11.2777C13.4112 11.2842 13.4064 11.2903 13.4019 11.2965C13.3967 11.3034 13.3919 11.3104 13.3865 11.317C13.3784 11.327 13.3696 11.3364 13.3607 11.3456H13.3606ZM2.59812 4.70327C2.59356 4.70952 2.58875 4.71558 2.58437 4.72202C2.57919 4.72983 2.57463 4.73789 2.56988 4.74589C2.56631 4.75189 2.5625 4.75777 2.55925 4.76402C2.55488 4.77195 2.55125 4.7802 2.54737 4.78839C2.54431 4.79502 2.541 4.80152 2.53819 4.80839C2.53494 4.81627 2.53225 4.82427 2.52944 4.83227C2.52675 4.8397 2.52394 4.84695 2.52163 4.85452C2.51919 4.86264 2.51737 4.87077 2.51537 4.87889C2.51344 4.88664 2.51125 4.8942 2.50975 4.90202C2.50787 4.91145 2.50662 4.92108 2.50537 4.93064C2.50444 4.9372 2.50319 4.94377 2.5025 4.95039C2.49923 4.98331 2.49923 5.01647 2.5025 5.04939C2.50313 5.05608 2.50437 5.06258 2.50531 5.06914C2.50669 5.0787 2.50781 5.08833 2.50969 5.09777C2.51125 5.10558 2.51344 5.1132 2.51531 5.12089C2.51737 5.12902 2.51919 5.13714 2.52163 5.14527C2.52394 5.15277 2.52675 5.16008 2.52944 5.16752C2.53225 5.17552 2.53494 5.18358 2.53819 5.19145C2.541 5.19827 2.54431 5.20477 2.54744 5.21145C2.55125 5.21958 2.55494 5.22783 2.55919 5.23583C2.5625 5.24208 2.56631 5.24789 2.56988 5.25395C2.57463 5.26189 2.57919 5.26995 2.58437 5.2777C2.58875 5.2842 2.59356 5.29033 2.59812 5.29652C2.60325 5.30339 2.60806 5.31039 2.6135 5.31702C2.62163 5.32695 2.63037 5.33639 2.63931 5.34564C2.64181 5.34814 2.64394 5.35095 2.64644 5.35345L4.64644 7.35345C4.69287 7.39988 4.74799 7.43671 4.80865 7.46184C4.86932 7.48697 4.93434 7.4999 5 7.4999C5.06566 7.4999 5.13068 7.48697 5.19135 7.46184C5.25201 7.43671 5.30713 7.39988 5.35356 7.35345C5.39999 7.30702 5.43682 7.2519 5.46195 7.19124C5.48708 7.13057 5.50001 7.06555 5.50001 6.99989C5.50001 6.93423 5.48708 6.86921 5.46195 6.80854C5.43682 6.74788 5.39999 6.69276 5.35356 6.64633L4.20706 5.49989H13C13.1326 5.49989 13.2598 5.44721 13.3536 5.35344C13.4473 5.25968 13.5 5.1325 13.5 4.99989C13.5 4.86728 13.4473 4.74011 13.3536 4.64634C13.2598 4.55257 13.1326 4.49989 13 4.49989H4.20706L5.35356 3.35345C5.44733 3.25968 5.50001 3.1325 5.50001 2.99989C5.50001 2.86728 5.44733 2.7401 5.35356 2.64633C5.25979 2.55256 5.13261 2.49988 5 2.49988C4.86739 2.49988 4.74021 2.55256 4.64644 2.64633L2.64644 4.64633C2.64406 4.64864 2.64206 4.65127 2.63981 4.65364C2.63075 4.66302 2.62181 4.67264 2.6135 4.68277C2.60806 4.68939 2.60325 4.69639 2.59819 4.70327H2.59812Z" fill="#A1A1AC"/>
</g>
</svg>
