<svg width="25" height="24" viewBox="0 0 25 24" fill="none" xmlns="http://www.w3.org/2000/svg">
<g clip-path="url(#clip0_205_10062)">
<path d="M13 22C7.477 22 3 17.523 3 12C3 6.477 7.477 2 13 2C18.523 2 23 6.477 23 12C23 17.523 18.523 22 13 22ZM13 20C15.1217 20 17.1566 19.1571 18.6569 17.6569C20.1571 16.1566 21 14.1217 21 12C21 9.87827 20.1571 7.84344 18.6569 6.34315C17.1566 4.84285 15.1217 4 13 4C10.8783 4 8.84344 4.84285 7.34315 6.34315C5.84285 7.84344 5 9.87827 5 12C5 14.1217 5.84285 16.1566 7.34315 17.6569C8.84344 19.1571 10.8783 20 13 20V20ZM12 12.792C11.4736 12.5623 11.0424 12.1583 10.7788 11.648C10.5152 11.1377 10.4354 10.5522 10.5527 9.98994C10.6701 9.4277 10.9774 8.92302 11.4231 8.56075C11.8688 8.19847 12.4256 8.00071 13 8.00071C13.5744 8.00071 14.1312 8.19847 14.5769 8.56075C15.0226 8.92302 15.3299 9.4277 15.4473 9.98994C15.5646 10.5522 15.4848 11.1377 15.2212 11.648C14.9576 12.1583 14.5264 12.5623 14 12.792V16H12V12.792Z" fill="#C4C4C4"/>
</g>
<defs>
<clipPath id="clip0_205_10062">
<rect width="23.5355" height="24" fill="white" transform="translate(0.613281)"/>
</clipPath>
</defs>
</svg>
