<svg width="17" height="16" viewBox="0 0 17 16" fill="none" xmlns="http://www.w3.org/2000/svg">
<g id="line/arrow-circle-up-light">
<path id="Vector" d="M8.91138 1.625C7.65052 1.625 6.41798 1.99889 5.36962 2.69938C4.32126 3.39988 3.50416 4.39551 3.02165 5.56039C2.53914 6.72527 2.41289 8.00707 2.65887 9.2437C2.90485 10.4803 3.51201 11.6162 4.40357 12.5078C5.29513 13.3994 6.43105 14.0065 7.66768 14.2525C8.90431 14.4985 10.1861 14.3722 11.351 13.8897C12.5159 13.4072 13.5115 12.5901 14.212 11.5418C14.9125 10.4934 15.2864 9.26086 15.2864 8C15.2845 6.30983 14.6122 4.68943 13.4171 3.4943C12.222 2.29916 10.6016 1.6269 8.91138 1.625ZM8.91138 13.625C7.79886 13.625 6.71132 13.2951 5.7863 12.677C4.86127 12.0589 4.1403 11.1804 3.71456 10.1526C3.28881 9.12476 3.17742 7.99376 3.39446 6.90262C3.6115 5.81147 4.14723 4.80919 4.9339 4.02252C5.72057 3.23585 6.72285 2.70012 7.814 2.48308C8.90514 2.26604 10.0361 2.37743 11.064 2.80318C12.0918 3.22892 12.9703 3.94989 13.5884 4.87492C14.2065 5.79994 14.5364 6.88748 14.5364 8C14.5347 9.49132 13.9415 10.9211 12.887 11.9756C11.8325 13.0301 10.4027 13.6233 8.91138 13.625ZM11.2979 7.35612C11.3327 7.39095 11.3603 7.43229 11.3792 7.47779C11.398 7.52329 11.4077 7.57206 11.4077 7.62131C11.4077 7.67056 11.398 7.71933 11.3792 7.76483C11.3603 7.81033 11.3327 7.85168 11.2979 7.8865C11.2631 7.92132 11.2217 7.94895 11.1762 7.9678C11.1307 7.98664 11.0819 7.99634 11.0327 7.99634C10.9834 7.99634 10.9347 7.98664 10.8892 7.9678C10.8437 7.94895 10.8023 7.92132 10.7675 7.8865L9.28638 6.40531V10.5C9.28638 10.5995 9.24687 10.6948 9.17654 10.7652C9.10622 10.8355 9.01084 10.875 8.91138 10.875C8.81192 10.875 8.71654 10.8355 8.64621 10.7652C8.57589 10.6948 8.53638 10.5995 8.53638 10.5V6.40531L7.05525 7.8865C7.02043 7.92132 6.97909 7.94895 6.93359 7.9678C6.88808 7.98664 6.83932 7.99634 6.79007 7.99634C6.74082 7.99634 6.69205 7.98664 6.64655 7.9678C6.60105 7.94895 6.5597 7.92132 6.52488 7.8865C6.49005 7.85168 6.46243 7.81033 6.44358 7.76483C6.42474 7.71933 6.41504 7.67056 6.41504 7.62131C6.41504 7.57206 6.42474 7.52329 6.44358 7.47779C6.46243 7.43229 6.49005 7.39095 6.52488 7.35612L8.64619 5.23488C8.68102 5.20005 8.72236 5.17242 8.76786 5.15357C8.81336 5.13472 8.86213 5.12502 8.91138 5.12502C8.96063 5.12502 9.0094 5.13472 9.0549 5.15357C9.1004 5.17242 9.14174 5.20005 9.17657 5.23488L11.2979 7.35612Z" fill="white"/>
</g>
</svg>
